<?xml version="1.0" encoding="UTF-8"?>
<svg id="Layer_1" data-name="Layer 1" xmlns="http://www.w3.org/2000/svg" version="1.1" viewBox="0 0 841.9 595.3">
  <defs>
    <style>
      .cls-1 {
        fill: #c71717;
      }

      .cls-1, .cls-2 {
        stroke-width: 0px;
      }

      .cls-2 {
        fill: #61dafb;
      }

      .cls-3 {
        display: none;
      }
    </style>
  </defs>
  <g class="cls-3">
    <path class="cls-2" d="M666.3,296.5c0-32.5-40.7-63.3-103.1-82.4,14.4-63.6,8-114.2-20.2-130.4-6.5-3.8-14.1-5.6-22.4-5.6v22.3c4.6,0,8.3.9,11.4,2.6,13.6,7.8,19.5,37.5,14.9,75.7-1.1,9.4-2.9,19.3-5.1,29.4-19.6-4.8-41-8.5-63.5-10.9-13.5-18.5-27.5-35.3-41.6-50,32.6-30.3,63.2-46.9,84-46.9v-22.3c-27.5,0-63.5,19.6-99.9,53.6-36.4-33.8-72.4-53.2-99.9-53.2v22.3c20.7,0,51.4,16.5,84,46.6-14,14.7-28,31.4-41.3,49.9-22.6,2.4-44,6.1-63.6,11-2.3-10-4-19.7-5.2-29-4.7-38.2,1.1-67.9,14.6-75.8,3-1.8,6.9-2.6,11.5-2.6v-22.3c-8.4,0-16,1.8-22.6,5.6-28.1,16.2-34.4,66.7-19.9,130.1-62.2,19.2-102.7,49.9-102.7,82.3s40.7,63.3,103.1,82.4c-14.4,63.6-8,114.2,20.2,130.4,6.5,3.8,14.1,5.6,22.5,5.6,27.5,0,63.5-19.6,99.9-53.6,36.4,33.8,72.4,53.2,99.9,53.2s16-1.8,22.6-5.6c28.1-16.2,34.4-66.7,19.9-130.1,62-19.1,102.5-49.9,102.5-82.3h0ZM536.1,229.8c-3.7,12.9-8.3,26.2-13.5,39.5-4.1-8-8.4-16-13.1-24-4.6-8-9.5-15.8-14.4-23.4,14.2,2.1,27.9,4.7,41,7.9h0ZM490.3,336.3c-7.8,13.5-15.8,26.3-24.1,38.2-14.9,1.3-30,2-45.2,2s-30.2-.7-45-1.9c-8.3-11.9-16.4-24.6-24.2-38-7.6-13.1-14.5-26.4-20.8-39.8,6.2-13.4,13.2-26.8,20.7-39.9,7.8-13.5,15.8-26.3,24.1-38.2,14.9-1.3,30-2,45.2-2s30.2.7,45,1.9c8.3,11.9,16.4,24.6,24.2,38,7.6,13.1,14.5,26.4,20.8,39.8-6.3,13.4-13.2,26.8-20.7,39.9h0ZM522.6,323.3c5.4,13.4,10,26.8,13.8,39.8-13.1,3.2-26.9,5.9-41.2,8,4.9-7.7,9.8-15.6,14.4-23.7,4.6-8,8.9-16.1,13-24.1h0ZM421.2,430c-9.3-9.6-18.6-20.3-27.8-32,9,.4,18.2.7,27.5.7s18.7-.2,27.8-.7c-9,11.7-18.3,22.4-27.5,32ZM346.8,371.1c-14.2-2.1-27.9-4.7-41-7.9,3.7-12.9,8.3-26.2,13.5-39.5,4.1,8,8.4,16,13.1,24s9.5,15.8,14.4,23.4ZM420.7,163c9.3,9.6,18.6,20.3,27.8,32-9-.4-18.2-.7-27.5-.7s-18.7.2-27.8.7c9-11.7,18.3-22.4,27.5-32ZM346.7,221.9c-4.9,7.7-9.8,15.6-14.4,23.7-4.6,8-8.9,16-13,24-5.4-13.4-10-26.8-13.8-39.8,13.1-3.1,26.9-5.8,41.2-7.9h0ZM256.2,347.1c-35.4-15.1-58.3-34.9-58.3-50.6s22.9-35.6,58.3-50.6c8.6-3.7,18-7,27.7-10.1,5.7,19.6,13.2,40,22.5,60.9-9.2,20.8-16.6,41.1-22.2,60.6-9.9-3.1-19.3-6.5-28-10.2h0ZM310,490c-13.6-7.8-19.5-37.5-14.9-75.7,1.1-9.4,2.9-19.3,5.1-29.4,19.6,4.8,41,8.5,63.5,10.9,13.5,18.5,27.5,35.3,41.6,50-32.6,30.3-63.2,46.9-84,46.9-4.5-.1-8.3-1-11.3-2.7h0ZM547.2,413.8c4.7,38.2-1.1,67.9-14.6,75.8-3,1.8-6.9,2.6-11.5,2.6-20.7,0-51.4-16.5-84-46.6,14-14.7,28-31.4,41.3-49.9,22.6-2.4,44-6.1,63.6-11,2.3,10.1,4.1,19.8,5.2,29.1ZM585.7,347.1c-8.6,3.7-18,7-27.7,10.1-5.7-19.6-13.2-40-22.5-60.9,9.2-20.8,16.6-41.1,22.2-60.6,9.9,3.1,19.3,6.5,28.1,10.2,35.4,15.1,58.3,34.9,58.3,50.6s-23,35.6-58.4,50.6h0Z"/>
    <circle class="cls-2" cx="420.9" cy="296.5" r="45.7"/>
    <path class="cls-2" d="M520.5,78.1"/>
  </g>
  <g>
    <path class="cls-1" d="M294.5,446.1V154.4h89.7v29.4c.2.2.5.4.7.5,11.9-12.8,25-23.6,41.6-29.7,16.5-6.1,33.5-6.5,51-5.5v83.4c.3.2.5.4.8.5,11.1-12,22.3-24.1,33.7-36.4,1.4,3,2.5,5.5,3.8,8,10.2,19.7,26.1,32.4,47.5,37.9,3.5.9,3.3,3,3.3,5.4,0,21.7,0,43.4,0,65.1-.2,42.6-.4,85.3-.6,127.9,0,3.6-1.3,5-4.9,5h-78.4c-3.5,0-5.9-2.9-5.9-7,0-27.1.1-54.2.2-81.3,0-26.4.1-52.9,0-79.3,0-10.5-1.7-20.8-6.4-30.3-8.3-16.9-22.2-25.2-40.8-24.5-23.7.9-37.5,16.9-42.5,35.6-3.4,12.9-2.7,26.1-2.6,39.3,0,1.8.1,3.5.1,5.3.1,23.9.2,47.7.4,71.6,0,2.4-.7,3.9-2.7,5.4-28.2,21-56.3,42.1-84.5,63.2-1,.7-2,1.4-3.3,2.2h-.1Z"/>
    <path class="cls-1" d="M176.8,290.9c.3-51.1,15-97.6,45.2-139,32.4-44.4,75.4-73.4,128.3-88.1,28.3-7.9,57.2-10,86.4-7.6,4.1.3,8.1,1.2,12.1,1.9,9.1,1.6,10.3,8.6,8.8,15.6-1.7,8-6.8,11.3-15.8,10.5-45.5-3.7-88,6-127.4,29-28.9,16.9-52.4,39.5-70,68.2-15.1,24.5-24.9,50.9-29.1,79.3-2.6,17.3-2.9,34.8-1.1,52.3,2.7,25.9,9.8,50.4,21.4,73.6,11.9,23.7,27.7,44.4,47.5,62.1,26.7,23.9,57.4,40.2,92.2,48.9,20.4,5.1,41.1,6.9,62,5.5,39.3-2.5,75.5-14.7,108-37.2,24.3-16.9,44.1-38,59.5-63.3,10.7-17.5,18.7-36.2,23.8-56.1,1.3-5,2.8-10,4.3-15,1.7-5.8,5.9-8.9,11.7-8.9s11.8,3.5,13.4,9.3c1,3.7,2.6,7.4,3.1,11.2.9,6.6-1.3,12.8-3,19.1-7.2,26-18.2,50.4-33.4,72.7-17.8,26.1-39.9,48-66.3,65.3-24,15.8-50.1,26.8-78.1,33.2-26.9,6.1-54,7.6-81.3,4.6-28.8-3.2-56.2-11.2-81.8-24.5-50-26-89.3-63-114.6-113.9-10.7-21.4-18-43.9-22-67.4-2.3-13.7-3.6-27.4-3.6-41.3h-.2Z"/>
    <path class="cls-1" d="M609.2,115.5c3.4,2.1,6.6,3.9,9.5,6,21,15.9,30,37.1,24.6,62.8-5.5,26.3-22.6,42.6-49,48.1-34.1,7.1-66.7-14.5-74-48.5-.3-1.2,0-3,.8-4,6.1-7.1,12.4-14,18.6-20.9.4-.4.8-.7,1.4-1.3,1,5.1,1.9,9.9,3,14.6,2.1,8.9,4.8,17.4,11.5,24.1,9.9,9.8,21.8,13.3,35.1,9.4,13.8-4,22.5-13.6,25.2-27.7,4.1-21-9.2-39.8-30.4-43.1-8-1.3-16.2-1.5-24.5-2.2,5.3-6.6,10.8-13.4,16.3-20.2,5.5-6.7,10.9-13.5,17-20.9h-61.8c-2.9,0-3.7-.8-3.6-3.7.2-5.3,0-10.6,0-15.9s0-1.9.2-3.2h119.7c-13.4,15.7-26.4,30.9-39.6,46.4v.2Z"/>
    <path class="cls-1" d="M488.8,93.6c-3.7,0-6.9,0-10.1,0-.8,0-2.2-1.1-2.2-1.7-.2-7.3-.1-14.7-.1-22.3h37.5v3.2c0,24.4,0,48.7,0,73.1,0,10.1,0,20.2-.2,30.3,0,1.3-.4,2.9-1.2,3.7-7.4,8.1-14.9,16.2-22.4,24.2-.2.2-.5.3-1.2.9v-111.3h0Z"/>
  </g>
</svg>